<svg xmlns="http://www.w3.org/2000/svg" xmlns:xlink="http://www.w3.org/1999/xlink" width="1000" height="651.3"><rect width="1000" height="651.3" rx="0" ry="0" class="a"/><svg height="651.3" viewBox="0 0 100 65.13" width="1000" xmlns="http://www.w3.org/2000/svg" xmlns:xlink="http://www.w3.org/1999/xlink"><style>@keyframes i{0%{transform:translateX(0)}.3%{transform:translateX(-100px)}18.1%{transform:translateX(-200px)}19.4%{transform:translateX(-300px)}40%{transform:translateX(-400px)}43.1%{transform:translateX(-500px)}56.9%{transform:translateX(-600px)}78.5%{transform:translateX(-700px)}91.6%{transform:translateX(-800px)}99.4%{transform:translateX(-900px)}99.5%{transform:translateX(-1000px)}to{transform:translateX(-1100px)}}.a{fill:#282d35}.c,.d,.e{fill:#b9c0cb;white-space:pre}.d,.e{fill:#d290e4}.e{fill:#e88388;font-weight:700}</style><g font-family="Monaco,Consolas,Menlo,'Bitstream Vera Sans Mono','Powerline Symbols',monospace" font-size="1.67"><defs><symbol id="1"><text y="1.67" class="c">===</text><text x="4.008" y="1.67" class="c">pq-audit</text><text x="13.026" y="1.67" class="c">TerraGoat</text><text x="23.046" y="1.67" class="c">—</text><text x="25.05" y="1.67" class="c">v2</text><text x="28.056" y="1.67" class="c">findings</text><text x="37.074" y="1.67" class="c">(published</text><text x="48.096" y="1.67" class="c">2026)</text><text x="54.108" y="1.67" class="c">===</text></symbol><symbol id="2"><text x="2.004" y="1.67" class="c">[BROKEN_NOW]</text><text x="20.04" y="1.67" class="c">azure/app_service.tf:29</text><text x="44.088" y="1.67" class="c">—</text><text x="46.092" y="1.67" class="c">Min</text><text x="50.1" y="1.67" class="c">TLS</text><text x="54.108" y="1.67" class="c">1.0/1.1</text></symbol><symbol id="3"><text x="2.004" y="1.67" class="c">[SNDL_VULNERABLE]</text><text x="20.04" y="1.67" class="c">aws/db-app.tf:150</text><text x="44.088" y="1.67" class="c">—</text><text x="46.092" y="1.67" class="c">SG</text><text x="49.098" y="1.67" class="c">0.0.0.0/0</text></symbol><symbol id="4"><text x="2.004" y="1.67" class="c">Total:</text><text x="9.018" y="1.67" class="c">2</text><text x="11.022" y="1.67" class="c">findings</text></symbol><symbol id="5"><text y="1.67" class="c">===</text><text x="4.008" y="1.67" class="c">pq-audit</text><text x="13.026" y="1.67" class="c">v3</text><text x="16.032" y="1.67" class="c">(updated</text><text x="25.05" y="1.67" class="c">patterns)</text><text x="35.07" y="1.67" class="c">===</text></symbol><symbol id="6"><text x="2.004" y="1.67" class="c">File</text><text x="7.014" y="1.67" class="d">&quot;&lt;string&gt;&quot;</text><text x="17.034" y="1.67" class="c">,</text><text x="19.038" y="1.67" class="c">line</text><text x="24.048" y="1.67" class="d">8</text></symbol><symbol id="7"><text x="4.008" y="1.67" class="c">print(f&apos;\033[{color}m[{risk}]\033[0m</text><text x="41.082" y="1.67" class="c">{f[</text><text x="44.088" y="1.67" class="e">chr(34)description</text><text x="62.124" y="1.67" class="c">{chr(34)}]}&apos;)</text></symbol><symbol id="8"><text x="44.088" y="1.67" class="e">^^^^^^^^^^^^^^^^^^</text></symbol><symbol id="9"><text y="1.67" style="white-space:pre" fill="#d290e4" font-weight="700">SyntaxError</text><text x="11.022" y="1.67" class="c">:</text><text x="13.026" y="1.67" class="d">invalid</text><text x="21.042" y="1.67" class="d">syntax.</text><text x="29.058" y="1.67" class="d">Perhaps</text><text x="37.074" y="1.67" class="d">you</text><text x="41.082" y="1.67" class="d">forgot</text><text x="48.096" y="1.67" class="d">a</text><text x="50.1" y="1.67" class="d">comma?</text></symbol><symbol id="10"><text y="1.67" class="c">===</text><text x="4.008" y="1.67" class="c">FP</text><text x="7.014" y="1.67" class="c">Triage</text><text x="14.028" y="1.67" class="c">===</text></symbol><symbol id="11"><text y="1.67" class="c">[triage]</text><text x="9.018" y="1.67" class="c">Processing</text><text x="20.04" y="1.67" class="c">4</text><text x="22.044" y="1.67" class="c">findings</text><text x="31.062" y="1.67" class="c">from</text><text x="36.072" y="1.67" class="c">/tmp/pq_terragoat_fresh.json</text></symbol><symbol id="12"><text x="2.004" y="1.67" class="c">🔴</text><text x="5.01" y="1.67" class="c">[TRUE_POSITIVE]</text><text x="21.042" y="1.67" class="c">Vault</text><text x="27.054" y="1.67" class="c">PKI</text><text x="31.062" y="1.67" class="c">RSA</text><text x="35.07" y="1.67" class="c">key</text><text x="39.078" y="1.67" class="c">type</text><text x="44.088" y="1.67" class="c">(SNDL)</text></symbol><symbol id="13"><text x="2.004" y="1.67" class="c">🔴</text><text x="5.01" y="1.67" class="c">[TRUE_POSITIVE]</text><text x="21.042" y="1.67" class="c">Min</text><text x="25.05" y="1.67" class="c">TLS</text><text x="29.058" y="1.67" class="c">1.0/1.1</text><text x="37.074" y="1.67" class="c">configured</text></symbol><symbol id="14"><text x="2.004" y="1.67" class="c">🔴</text><text x="5.01" y="1.67" class="c">[TRUE_POSITIVE]</text><text x="21.042" y="1.67" class="c">SG</text><text x="24.048" y="1.67" class="c">con</text><text x="28.056" y="1.67" class="c">0.0.0.0/0</text></symbol><symbol id="15"><text x="2.004" y="1.67" class="c">🔴</text><text x="5.01" y="1.67" class="c">[TRUE_POSITIVE]</text><text x="21.042" y="1.67" class="c">S3</text><text x="24.048" y="1.67" class="c">ACL</text><text x="28.056" y="1.67" class="c">public-read</text></symbol><symbol id="16"><text y="1.67" class="c">[triage]</text><text x="9.018" y="1.67" class="c">Summary:</text><text x="18.036" y="1.67" class="c">4</text><text x="20.04" y="1.67" class="c">TRUE_POSITIVE</text><text x="34.068" y="1.67" class="c">|</text><text x="36.072" y="1.67" class="c">0</text><text x="38.076" y="1.67" class="c">NEEDS_REVIEW</text><text x="51.102" y="1.67" class="c">|</text><text x="53.106" y="1.67" class="c">0</text><text x="55.11" y="1.67" class="c">LIKELY_FP</text></symbol><symbol id="17"><text y="1.67" class="c">[triage]</text><text x="9.018" y="1.67" class="c">FP</text><text x="12.024" y="1.67" class="c">rate</text><text x="17.034" y="1.67" class="c">estimate:</text><text x="27.054" y="1.67" class="c">0%</text></symbol><symbol id="18"><text y="1.67" class="c">[triage]</text><text x="9.018" y="1.67" class="c">Report</text><text x="16.032" y="1.67" class="c">saved:</text><text x="23.046" y="1.67" class="c">/tmp/poc_triage_result.json</text></symbol><symbol id="a"><path fill="transparent" d="M0 0h100v31H0z"/></symbol><symbol id="b"><path fill="#6f7683" d="M0 0h1.102v2.171H0z"/></symbol></defs><path class="a" d="M0 0h100v65.13H0z"/><g style="animation-duration:5.692885s;animation-iteration-count:infinite;animation-name:i;animation-timing-function:steps(1,end)"><svg width="1200"><svg><use xlink:href="#a"/><use xlink:href="#b" x="-.004"/></svg><svg x="100"><use xlink:href="#a"/><use xlink:href="#b" x="-.004" y="8.659"/><use xlink:href="#1"/><use xlink:href="#2" y="2.171"/><use xlink:href="#3" y="4.342"/><use xlink:href="#4" y="6.513"/></svg><svg x="200"><use xlink:href="#a"/><use xlink:href="#b" x="-.004" y="13.001"/><use xlink:href="#1"/><use xlink:href="#2" y="2.171"/><use xlink:href="#3" y="4.342"/><use xlink:href="#4" y="6.513"/><use xlink:href="#5" y="10.855"/></svg><svg x="300"><use xlink:href="#a"/><use xlink:href="#b" x="-.004" y="21.685"/><use xlink:href="#1"/><use xlink:href="#2" y="2.171"/><use xlink:href="#3" y="4.342"/><use xlink:href="#4" y="6.513"/><use xlink:href="#5" y="10.855"/><use xlink:href="#6" y="13.026"/><use xlink:href="#7" y="15.197"/><use xlink:href="#8" y="17.368"/><use xlink:href="#9" y="19.539"/></svg><svg x="400"><use xlink:href="#a"/><use xlink:href="#b" x="-.004" y="26.027"/><use xlink:href="#1"/><use xlink:href="#2" y="2.171"/><use xlink:href="#3" y="4.342"/><use xlink:href="#4" y="6.513"/><use xlink:href="#5" y="10.855"/><use xlink:href="#6" y="13.026"/><use xlink:href="#7" y="15.197"/><use xlink:href="#8" y="17.368"/><use xlink:href="#9" y="19.539"/><use xlink:href="#10" y="23.881"/></svg><svg x="500"><use xlink:href="#a"/><use xlink:href="#b" x="-.004" y="28.198"/><use xlink:href="#1"/><use xlink:href="#2" y="2.171"/><use xlink:href="#3" y="4.342"/><use xlink:href="#4" y="6.513"/><use xlink:href="#5" y="10.855"/><use xlink:href="#6" y="13.026"/><use xlink:href="#7" y="15.197"/><use xlink:href="#8" y="17.368"/><use xlink:href="#9" y="19.539"/><use xlink:href="#10" y="23.881"/><use xlink:href="#11" y="26.052"/></svg><svg x="600"><use xlink:href="#a"/><use xlink:href="#b" x="-.004" y="30.369"/><use xlink:href="#1"/><use xlink:href="#2" y="2.171"/><use xlink:href="#3" y="4.342"/><use xlink:href="#4" y="6.513"/><use xlink:href="#5" y="10.855"/><use xlink:href="#6" y="13.026"/><use xlink:href="#7" y="15.197"/><use xlink:href="#8" y="17.368"/><use xlink:href="#9" y="19.539"/><use xlink:href="#10" y="23.881"/><use xlink:href="#11" y="26.052"/><use xlink:href="#12" y="28.223"/></svg><svg x="700"><use xlink:href="#a"/><use xlink:href="#b" x="-.004" y="32.54"/><use xlink:href="#1"/><use xlink:href="#2" y="2.171"/><use xlink:href="#3" y="4.342"/><use xlink:href="#4" y="6.513"/><use xlink:href="#5" y="10.855"/><use xlink:href="#6" y="13.026"/><use xlink:href="#7" y="15.197"/><use xlink:href="#8" y="17.368"/><use xlink:href="#9" y="19.539"/><use xlink:href="#10" y="23.881"/><use xlink:href="#11" y="26.052"/><use xlink:href="#12" y="28.223"/><use xlink:href="#13" y="30.394"/></svg><svg x="800"><use xlink:href="#a"/><use xlink:href="#b" x="-.004" y="34.711"/><use xlink:href="#1"/><use xlink:href="#2" y="2.171"/><use xlink:href="#3" y="4.342"/><use xlink:href="#4" y="6.513"/><use xlink:href="#5" y="10.855"/><use xlink:href="#6" y="13.026"/><use xlink:href="#7" y="15.197"/><use xlink:href="#8" y="17.368"/><use xlink:href="#9" y="19.539"/><use xlink:href="#10" y="23.881"/><use xlink:href="#11" y="26.052"/><use xlink:href="#12" y="28.223"/><use xlink:href="#13" y="30.394"/><use xlink:href="#14" y="32.565"/></svg><svg x="900"><use xlink:href="#a"/><use xlink:href="#b" x="-.004" y="36.882"/><use xlink:href="#1"/><use xlink:href="#2" y="2.171"/><use xlink:href="#3" y="4.342"/><use xlink:href="#4" y="6.513"/><use xlink:href="#5" y="10.855"/><use xlink:href="#6" y="13.026"/><use xlink:href="#7" y="15.197"/><use xlink:href="#8" y="17.368"/><use xlink:href="#9" y="19.539"/><use xlink:href="#10" y="23.881"/><use xlink:href="#11" y="26.052"/><use xlink:href="#12" y="28.223"/><use xlink:href="#13" y="30.394"/><use xlink:href="#14" y="32.565"/><use xlink:href="#15" y="34.736"/></svg><svg x="1000"><use xlink:href="#a"/><use xlink:href="#b" x="-.004" y="45.566"/><use xlink:href="#1"/><use xlink:href="#2" y="2.171"/><use xlink:href="#3" y="4.342"/><use xlink:href="#4" y="6.513"/><use xlink:href="#5" y="10.855"/><use xlink:href="#6" y="13.026"/><use xlink:href="#7" y="15.197"/><use xlink:href="#8" y="17.368"/><use xlink:href="#9" y="19.539"/><use xlink:href="#10" y="23.881"/><use xlink:href="#11" y="26.052"/><use xlink:href="#12" y="28.223"/><use xlink:href="#13" y="30.394"/><use xlink:href="#14" y="32.565"/><use xlink:href="#15" y="34.736"/><use xlink:href="#16" y="39.078"/><use xlink:href="#17" y="41.249"/><use xlink:href="#18" y="43.42"/></svg><svg x="1100"><use xlink:href="#a"/><use xlink:href="#b" x="-.004" y="49.908"/><use xlink:href="#1"/><use xlink:href="#2" y="2.171"/><use xlink:href="#3" y="4.342"/><use xlink:href="#4" y="6.513"/><use xlink:href="#5" y="10.855"/><use xlink:href="#6" y="13.026"/><use xlink:href="#7" y="15.197"/><use xlink:href="#8" y="17.368"/><use xlink:href="#9" y="19.539"/><use xlink:href="#10" y="23.881"/><use xlink:href="#11" y="26.052"/><use xlink:href="#12" y="28.223"/><use xlink:href="#13" y="30.394"/><use xlink:href="#14" y="32.565"/><use xlink:href="#15" y="34.736"/><use xlink:href="#16" y="39.078"/><use xlink:href="#17" y="41.249"/><use xlink:href="#18" y="43.42"/><text y="49.432" class="c">Result:</text><text x="8.016" y="49.432" class="c">4/4</text><text x="12.024" y="49.432" class="c">TRUE_POSITIVE</text><text x="26.052" y="49.432" class="c">|</text><text x="28.056" y="49.432" class="c">FP</text><text x="31.062" y="49.432" class="c">rate:</text><text x="37.074" y="49.432" class="c">0%</text></svg></svg></g></g></svg></svg>